<?xml version="1.0" encoding="UTF-8"?>
<!DOCTYPE svg PUBLIC "-//W3C//DTD SVG 1.1//EN" "http://www.w3.org/Graphics/SVG/1.1/DTD/svg11.dtd">
<svg xmlns="http://www.w3.org/2000/svg" version="1.1" width="154px" height="154px" style="shape-rendering:geometricPrecision; text-rendering:geometricPrecision; image-rendering:optimizeQuality; fill-rule:evenodd; clip-rule:evenodd" xmlns:xlink="http://www.w3.org/1999/xlink">
<g><path style="opacity:1" fill="#f5f5f5" d="M -0.5,-0.5 C 50.8333,-0.5 102.167,-0.5 153.5,-0.5C 153.5,4.16667 153.5,8.83333 153.5,13.5C 151.686,11.2359 149.853,8.90254 148,6.5C 147.878,8.16862 148.212,9.83529 149,11.5C 149.667,53.5 149.667,95.5 149,137.5C 147.947,143.553 144.447,147.387 138.5,149C 95.5,149.333 52.5,149.667 9.5,150C 10.3279,150.915 11.3279,151.581 12.5,152C 56.5,152.667 100.5,152.667 144.5,152C 148.408,149.594 151.408,146.428 153.5,142.5C 153.5,146.167 153.5,149.833 153.5,153.5C 102.167,153.5 50.8333,153.5 -0.5,153.5C -0.5,102.167 -0.5,50.8333 -0.5,-0.5 Z"/></g>
<g><path style="opacity:1" fill="#d1d1d1" d="M 153.5,13.5 C 153.5,56.5 153.5,99.5 153.5,142.5C 151.408,146.428 148.408,149.594 144.5,152C 100.5,152.667 56.5,152.667 12.5,152C 11.3279,151.581 10.3279,150.915 9.5,150C 52.5,149.667 95.5,149.333 138.5,149C 144.447,147.387 147.947,143.553 149,137.5C 149.667,95.5 149.667,53.5 149,11.5C 148.212,9.83529 147.878,8.16862 148,6.5C 149.853,8.90254 151.686,11.2359 153.5,13.5 Z"/></g>
<g><path style="opacity:1" fill="#fe6e6a" d="M 52.5,47.5 C 50.9256,47.9371 49.7589,48.9371 49,50.5C 48.3828,49.5509 48.5494,48.7175 49.5,48C 48.9056,47.5357 48.2389,47.369 47.5,47.5C 49.0273,43.5582 50.694,43.5582 52.5,47.5 Z"/></g>
<g><path style="opacity:1" fill="#161515" d="M 41.5,58.5 C 41.7373,59.791 41.404,60.791 40.5,61.5C 32.5623,59.7207 26.729,62.3874 23,69.5C 21.7358,83.2365 27.9024,89.0698 41.5,87C 47.8505,83.2922 50.3505,77.7922 49,70.5C 48.3028,68.4156 47.1361,66.7489 45.5,65.5C 45.5569,64.391 45.8902,63.391 46.5,62.5C 53.12,68.4114 54.2867,75.4114 50,83.5C 40.6354,92.7719 31.302,92.7719 22,83.5C 16.8491,72.9729 19.3491,64.8062 29.5,59C 33.4862,58.5012 37.4862,58.3345 41.5,58.5 Z"/></g>
<g><path style="opacity:1" fill="#161616" d="M 66.5,58.5 C 66.1796,61.8984 66.513,65.2317 67.5,68.5C 68.1067,68.3764 68.44,68.0431 68.5,67.5C 72.188,65.7531 75.3547,66.4198 78,69.5C 78.4994,75.1569 78.6661,80.8236 78.5,86.5C 76.8333,86.5 75.1667,86.5 73.5,86.5C 73.6659,81.4889 73.4993,76.4889 73,71.5C 71.3333,70.1667 69.6667,70.1667 68,71.5C 67.5007,76.4889 67.3341,81.4889 67.5,86.5C 65.5,86.5 63.5,86.5 61.5,86.5C 61.5,77.1667 61.5,67.8333 61.5,58.5C 63.1667,58.5 64.8333,58.5 66.5,58.5 Z"/></g>
<g><path style="opacity:1" fill="#5c5c5c" d="M 66.5,58.5 C 67.1667,61.5 67.8333,64.5 68.5,67.5C 68.44,68.0431 68.1067,68.3764 67.5,68.5C 66.513,65.2317 66.1796,61.8984 66.5,58.5 Z"/></g>
<g><path style="opacity:1" fill="#0d0d0d" d="M 86.5,66.5 C 90.8394,65.8461 94.6727,66.8461 98,69.5C 98.2139,74.8854 98.7139,80.2187 99.5,85.5C 96.0014,85.677 92.5014,86.0103 89,86.5C 83.2938,86.1057 81.2938,83.1057 83,77.5C 85.9836,74.8999 89.4836,73.8999 93.5,74.5C 93.67,73.1779 93.3366,72.0113 92.5,71C 89.7813,70.4719 87.2813,70.9719 85,72.5C 84.1667,72.1667 83.3333,71.8333 82.5,71.5C 83.8569,69.8144 85.1902,68.1477 86.5,66.5 Z"/></g>
<g><path style="opacity:1" fill="#0b0b0b" d="M 116.5,66.5 C 118.167,66.5 119.833,66.5 121.5,66.5C 121.334,71.5111 121.501,76.5111 122,81.5C 123.796,82.767 125.629,82.767 127.5,81.5C 128.494,76.544 128.827,71.544 128.5,66.5C 130.167,66.5 131.833,66.5 133.5,66.5C 133.5,73.1667 133.5,79.8333 133.5,86.5C 131.234,86.8588 129.401,86.1922 128,84.5C 124.667,87.1667 121.333,87.1667 118,84.5C 116.59,78.6208 116.09,72.6208 116.5,66.5 Z"/></g>
<g><path style="opacity:1" fill="#fb8080" d="M 109.5,67.5 C 107.741,67.9539 105.741,67.9539 103.5,67.5C 103.5,73.8333 103.5,80.1667 103.5,86.5C 102.509,80.021 102.176,73.3543 102.5,66.5C 104.95,66.298 107.283,66.6314 109.5,67.5 Z"/></g>
<g><path style="opacity:1" fill="#fe3935" d="M 103.5,86.5 C 103.5,80.1667 103.5,73.8333 103.5,67.5C 105.741,67.9539 107.741,67.9539 109.5,67.5C 110.568,66.5655 111.901,66.2322 113.5,66.5C 113.5,68.1667 113.5,69.8333 113.5,71.5C 111.856,71.2865 110.356,71.6198 109,72.5C 108.501,77.1548 108.334,81.8215 108.5,86.5C 106.833,86.5 105.167,86.5 103.5,86.5 Z"/></g>
<g><path style="opacity:1" fill="#f2efef" d="M 40.5,61.5 C 39.4514,67.0279 37.7848,72.3612 35.5,77.5C 33.8423,74.8392 32.1756,72.1725 30.5,69.5C 28.5,68.1667 26.5,68.1667 24.5,69.5C 24.8627,70.1835 25.1961,70.8501 25.5,71.5C 26.9336,74.0472 28.6002,76.3805 30.5,78.5C 30.5,79.1667 30.8333,79.5 31.5,79.5C 32.1103,81.4341 33.1103,83.1007 34.5,84.5C 35.5486,84.4021 36.7153,84.4021 38,84.5C 40.441,78.0462 42.941,71.7129 45.5,65.5C 47.1361,66.7489 48.3028,68.4156 49,70.5C 50.3505,77.7922 47.8505,83.2922 41.5,87C 27.9024,89.0698 21.7358,83.2365 23,69.5C 26.729,62.3874 32.5623,59.7207 40.5,61.5 Z"/></g>
<g><path style="opacity:1" fill="#fa9796" d="M 30.5,78.5 C 28.6002,76.3805 26.9336,74.0472 25.5,71.5C 26.8804,70.2935 28.0471,70.6269 29,72.5C 30.5618,74.5039 31.0618,76.5039 30.5,78.5 Z"/></g>
<g><path style="opacity:1" fill="#fd4944" d="M 47.5,47.5 C 48.2389,47.369 48.9056,47.5357 49.5,48C 48.5494,48.7175 48.3828,49.5509 49,50.5C 49.7589,48.9371 50.9256,47.9371 52.5,47.5C 50.1099,52.3357 48.1099,57.3357 46.5,62.5C 45.8902,63.391 45.5569,64.391 45.5,65.5C 42.941,71.7129 40.441,78.0462 38,84.5C 36.7153,84.4021 35.5486,84.4021 34.5,84.5C 35.3805,81.9891 34.3805,80.3224 31.5,79.5C 30.8333,79.5 30.5,79.1667 30.5,78.5C 31.0618,76.5039 30.5618,74.5039 29,72.5C 28.0471,70.6269 26.8804,70.2935 25.5,71.5C 25.1961,70.8501 24.8627,70.1835 24.5,69.5C 26.5,68.1667 28.5,68.1667 30.5,69.5C 32.1756,72.1725 33.8423,74.8392 35.5,77.5C 37.7848,72.3612 39.4514,67.0279 40.5,61.5C 41.404,60.791 41.7373,59.791 41.5,58.5C 43.5,54.8333 45.5,51.1667 47.5,47.5 Z"/></g>
<g><path style="opacity:1" fill="#ebebeb" d="M 88.5,77.5 C 90.1667,77.5 91.8333,77.5 93.5,77.5C 93.938,81.9083 91.938,83.5749 87.5,82.5C 87.366,80.7085 87.6993,79.0418 88.5,77.5 Z"/></g>
<g><path style="opacity:1" fill="#fa9d9c" d="M 31.5,79.5 C 34.3805,80.3224 35.3805,81.9891 34.5,84.5C 33.1103,83.1007 32.1103,81.4341 31.5,79.5 Z"/></g>
</svg>
